<?xml version="1.0" encoding="UTF-8"?>
<!DOCTYPE svg PUBLIC "-//W3C//DTD SVG 1.1//EN" "http://www.w3.org/Graphics/SVG/1.1/DTD/svg11.dtd">
<svg version="1.1" xmlns="http://www.w3.org/2000/svg" xmlns:xlink="http://www.w3.org/1999/xlink" x="0" y="0" width="249.449" height="107.717" viewBox="0, 0, 249.449, 107.717">
  <g id="Layer_1">
    <path d="M225.697,105.319 L228.805,102.712 L231.722,99.894 L234.436,96.88 L236.933,93.684 L239.202,90.321 L241.229,86.809 L243.008,83.163 L244.527,79.402 L245.781,75.545 L246.762,71.609 L247.466,67.615 L247.89,63.581 L248.032,59.528 L247.89,55.474 L247.466,51.44 L246.762,47.446 L245.781,43.51 L244.527,39.653 L243.008,35.892 L241.229,32.246 L239.202,28.734 L236.933,25.371 L234.436,22.175 L231.722,19.161 L228.805,16.343 L225.697,13.736 L222.416,11.352 L218.976,9.203 L215.395,7.298 L211.69,5.649 L207.878,4.261 L203.979,3.143 L200.012,2.3 L195.995,1.736 L191.949,1.453 L187.893,1.453 L183.847,1.736 L179.83,2.3 L175.863,3.143 L171.964,4.261 L168.153,5.649 L164.447,7.298 L160.866,9.203 L157.427,11.352 L154.145,13.736 L151.038,16.343 L148.12,19.161 L145.406,22.175 L142.909,25.371 L140.641,28.734 L138.613,32.246 L136.835,35.892 L135.316,39.653 L134.062,43.51 L133.081,47.446 L132.377,51.44 L131.953,55.474 L131.811,59.528 L131.953,63.581 L132.377,67.615 L133.081,71.609 L134.062,75.545 L135.316,79.402 L136.835,83.163 L138.613,86.809 L140.641,90.321 L142.909,93.684 L145.406,96.88 L148.12,99.894 L151.038,102.712 L154.145,105.319 L157.323,107.628 L157.323,90.827 L157.356,89.879 L157.455,88.936 L157.62,88.003 L157.849,87.083 L158.142,86.181 L158.497,85.302 L158.913,84.45 L159.387,83.629 L159.917,82.843 L160.5,82.096 L161.135,81.391 L161.817,80.733 L162.543,80.123 L163.31,79.566 L164.114,79.064 L164.951,78.619 L165.817,78.233 L166.708,77.909 L167.62,77.648 L168.547,77.45 L168.851,77.408 L169.031,76.687 L169.5,75.244 L170.068,73.838 L170.733,72.474 L171.491,71.161 L172.34,69.903 L173.273,68.708 L174.288,67.581 L175.38,66.527 L176.542,65.552 L177.769,64.66 L179.055,63.856 L180.395,63.144 L181.78,62.527 L183.206,62.008 L184.664,61.59 L186.148,61.275 L187.65,61.064 L189.163,60.958 L190.68,60.958 L192.193,61.064 L193.695,61.275 L195.179,61.59 L196.637,62.008 L198.062,62.527 L199.448,63.144 L200.787,63.856 L202.074,64.66 L203.301,65.552 L204.463,66.527 L205.554,67.581 L206.569,68.708 L207.503,69.903 L208.351,71.161 L209.11,72.474 L209.775,73.838 L210.343,75.244 L210.811,76.687 L210.991,77.408 L211.296,77.45 L212.223,77.648 L213.134,77.909 L214.025,78.233 L214.891,78.619 L215.728,79.064 L216.532,79.566 L217.299,80.123 L218.026,80.733 L218.708,81.391 L219.342,82.096 L219.926,82.843 L220.456,83.629 L220.93,84.45 L221.345,85.302 L221.7,86.181 L221.994,87.083 L222.223,88.003 L222.388,88.936 L222.487,89.879 L222.52,90.827 L222.52,107.628 z M223.937,90.709 L223.902,89.72 L223.799,88.736 L223.627,87.762 L223.388,86.802 L223.082,85.861 L222.712,84.944 L222.278,84.055 L221.783,83.198 L221.23,82.378 L220.621,81.598 L219.959,80.863 L219.247,80.176 L218.49,79.54 L217.689,78.958 L216.85,78.434 L215.977,77.97 L215.073,77.567 L214.144,77.229 L213.193,76.956 L212.225,76.751 L211.907,76.706 L211.72,75.954 L211.231,74.449 L210.638,72.981 L209.944,71.558 L209.153,70.188 L208.267,68.875 L207.293,67.628 L206.234,66.452 L205.095,65.352 L203.883,64.335 L202.602,63.404 L201.26,62.566 L199.862,61.823 L198.416,61.179 L196.929,60.637 L195.407,60.201 L193.859,59.872 L192.292,59.652 L190.713,59.541 L189.13,59.541 L187.551,59.652 L185.983,59.872 L184.435,60.201 L182.914,60.637 L181.426,61.179 L179.98,61.823 L178.583,62.566 L177.24,63.404 L175.96,64.335 L174.747,65.352 L173.609,66.452 L172.55,67.628 L171.575,68.875 L170.69,70.188 L169.898,71.558 L169.205,72.981 L168.612,74.449 L168.123,75.954 L167.935,76.706 L167.618,76.751 L166.65,76.956 L165.699,77.229 L164.769,77.567 L163.866,77.97 L162.992,78.434 L162.153,78.958 L161.353,79.54 L160.595,80.176 L159.883,80.863 L159.221,81.598 L158.612,82.378 L158.059,83.198 L157.565,84.055 L157.131,84.944 L156.76,85.861 L156.455,86.802 L156.215,87.762 L156.044,88.736 L155.94,89.72 L155.906,90.709 L155.906,104.847 L155.018,104.202 L151.986,101.659 L149.14,98.91 L146.492,95.969 L144.056,92.851 L141.843,89.57 L139.864,86.143 L138.13,82.587 L136.647,78.918 L135.425,75.154 L134.467,71.315 L133.78,67.418 L133.366,63.482 L133.228,59.528 L133.366,55.573 L133.78,51.637 L134.467,47.74 L135.425,43.901 L136.647,40.137 L138.13,36.469 L139.864,32.912 L141.843,29.485 L144.056,26.204 L146.492,23.086 L149.14,20.145 L151.986,17.397 L155.018,14.853 L158.219,12.527 L161.575,10.43 L165.069,8.572 L168.684,6.963 L172.402,5.609 L176.206,4.519 L180.077,3.696 L183.995,3.145 L187.943,2.869 L191.9,2.869 L195.847,3.145 L199.766,3.696 L203.636,4.519 L207.44,5.609 L211.159,6.963 L214.774,8.572 L218.268,10.43 L221.624,12.527 L224.825,14.853 L227.856,17.397 L230.703,20.145 L233.351,23.086 L235.787,26.204 L238,29.485 L239.978,32.912 L241.713,36.469 L243.195,40.137 L244.418,43.901 L245.375,47.74 L246.063,51.637 L246.476,55.573 L246.614,59.528 L246.476,63.482 L246.063,67.418 L245.375,71.315 L244.418,75.154 L243.195,78.918 L241.713,82.587 L239.978,86.143 L238,89.57 L235.787,92.851 L233.351,95.969 L230.703,98.91 L227.856,101.659 L224.825,104.202 L223.937,104.847 z M196.037,24.779 L196.255,24.754 L196.464,24.714 L196.663,24.659 L196.853,24.589 L197.034,24.504 L197.204,24.404 L197.365,24.289 L197.517,24.158 L197.659,24.013 L197.791,23.852 L197.914,23.676 L198.026,23.486 L198.129,23.282 L198.222,23.065 L198.305,22.834 L198.377,22.59 L198.44,22.332 L198.492,22.061 L198.535,21.776 L198.567,21.477 L198.589,21.165 L198.601,20.84 L198.603,20.501 L198.595,20.156 L198.578,19.826 L198.552,19.51 L198.516,19.209 L198.471,18.922 L198.416,18.65 L198.352,18.392 L198.279,18.149 L198.196,17.92 L198.104,17.706 L198.003,17.506 L197.892,17.321 L197.772,17.15 L197.642,16.994 L197.501,16.853 L197.35,16.727 L197.188,16.616 L197.016,16.52 L196.834,16.44 L196.642,16.374 L196.439,16.323 L196.226,16.288 L196.002,16.267 L195.768,16.262 L195.528,16.271 L195.299,16.296 L195.081,16.335 L194.875,16.388 L194.679,16.457 L194.494,16.54 L194.321,16.637 L194.158,16.75 L194.007,16.877 L193.867,17.019 L193.738,17.175 L193.62,17.347 L193.513,17.532 L193.416,17.732 L193.328,17.948 L193.25,18.177 L193.181,18.422 L193.122,18.682 L193.072,18.956 L193.032,19.245 L193.002,19.549 L192.981,19.868 L192.97,20.202 L192.968,20.55 L192.976,20.891 L192.993,21.217 L193.02,21.53 L193.057,21.829 L193.103,22.114 L193.159,22.385 L193.224,22.642 L193.3,22.885 L193.384,23.115 L193.478,23.33 L193.582,23.531 L193.696,23.718 L193.819,23.891 L193.952,24.049 L194.095,24.191 L194.247,24.318 L194.409,24.43 L194.58,24.527 L194.761,24.609 L194.952,24.675 L195.151,24.726 L195.361,24.762 L195.58,24.783 L195.809,24.788 z M195.662,23.937 L195.519,23.921 L195.382,23.893 L195.253,23.854 L195.13,23.804 L195.013,23.742 L194.904,23.669 L194.801,23.585 L194.706,23.488 L194.617,23.38 L194.534,23.261 L194.459,23.131 L194.39,22.988 L194.327,22.831 L194.27,22.662 L194.219,22.479 L194.173,22.283 L194.133,22.074 L194.099,21.851 L194.07,21.616 L194.048,21.367 L194.031,21.105 L194.019,20.829 L194.014,20.541 L194.014,20.244 L194.02,19.961 L194.033,19.692 L194.051,19.438 L194.075,19.198 L194.104,18.972 L194.14,18.76 L194.182,18.562 L194.23,18.379 L194.283,18.21 L194.342,18.056 L194.408,17.915 L194.48,17.787 L194.56,17.669 L194.647,17.563 L194.742,17.468 L194.844,17.384 L194.954,17.311 L195.072,17.249 L195.198,17.198 L195.331,17.158 L195.471,17.129 L195.62,17.111 L195.775,17.104 L195.927,17.108 L196.072,17.124 L196.209,17.151 L196.339,17.189 L196.462,17.239 L196.578,17.3 L196.686,17.372 L196.788,17.455 L196.882,17.55 L196.968,17.656 L197.048,17.774 L197.12,17.903 L197.186,18.044 L197.247,18.199 L197.302,18.367 L197.351,18.55 L197.395,18.746 L197.434,18.957 L197.467,19.181 L197.494,19.419 L197.516,19.671 L197.532,19.937 L197.543,20.216 L197.549,20.51 L197.548,20.793 L197.542,21.064 L197.529,21.323 L197.51,21.569 L197.486,21.803 L197.455,22.024 L197.418,22.233 L197.375,22.429 L197.326,22.613 L197.271,22.785 L197.21,22.944 L197.143,23.09 L197.07,23.225 L196.99,23.348 L196.903,23.46 L196.809,23.559 L196.709,23.647 L196.602,23.724 L196.487,23.789 L196.366,23.843 L196.238,23.885 L196.103,23.915 L195.961,23.934 L195.813,23.941 z M189.634,24.838 L189.842,24.824 L190.041,24.8 L190.232,24.769 L190.414,24.728 L190.588,24.68 L190.753,24.622 L190.909,24.557 L191.057,24.482 L191.197,24.4 L191.328,24.309 L191.45,24.209 L191.563,24.101 L191.667,23.986 L191.76,23.863 L191.843,23.734 L191.916,23.599 L191.98,23.456 L192.033,23.306 L192.076,23.149 L192.109,22.985 L192.133,22.814 L192.146,22.636 L192.149,22.451 L192.144,22.323 L192.133,22.198 L192.114,22.078 L192.089,21.961 L192.056,21.847 L192.016,21.738 L191.969,21.633 L191.916,21.531 L191.855,21.432 L191.787,21.338 L191.712,21.247 L191.631,21.16 L191.542,21.077 L191.449,21.001 L191.35,20.93 L191.245,20.865 L191.135,20.806 L191.019,20.753 L190.898,20.706 L190.771,20.665 L190.638,20.629 L190.5,20.599 L190.357,20.575 L190.208,20.557 L190.208,20.534 L190.343,20.501 L190.473,20.463 L190.597,20.421 L190.716,20.375 L190.829,20.324 L190.937,20.268 L191.039,20.208 L191.135,20.143 L191.226,20.074 L191.312,20.001 L191.392,19.923 L191.466,19.84 L191.535,19.753 L191.598,19.662 L191.655,19.567 L191.705,19.468 L191.75,19.365 L191.788,19.257 L191.821,19.145 L191.847,19.029 L191.867,18.909 L191.881,18.785 L191.889,18.657 L191.891,18.524 L191.885,18.352 L191.869,18.187 L191.844,18.027 L191.81,17.875 L191.766,17.729 L191.714,17.59 L191.651,17.457 L191.58,17.331 L191.498,17.211 L191.408,17.098 L191.308,16.991 L191.199,16.891 L191.082,16.798 L190.957,16.713 L190.824,16.637 L190.685,16.569 L190.537,16.508 L190.383,16.456 L190.22,16.413 L190.051,16.377 L189.874,16.35 L189.689,16.332 L189.497,16.321 L189.298,16.318 L189.115,16.324 L188.937,16.337 L188.765,16.358 L188.599,16.387 L188.438,16.423 L188.284,16.467 L188.135,16.519 L187.991,16.578 L187.853,16.645 L187.721,16.72 L187.595,16.803 L187.474,16.893 L187.361,16.99 L187.256,17.093 L187.159,17.202 L187.07,17.317 L186.99,17.439 L186.918,17.566 L186.854,17.699 L186.799,17.839 L186.752,17.984 L186.713,18.135 L186.682,18.293 L186.66,18.456 L187.704,18.526 L187.717,18.422 L187.735,18.321 L187.758,18.225 L187.785,18.132 L187.818,18.044 L187.856,17.959 L187.898,17.878 L187.946,17.801 L187.999,17.728 L188.056,17.659 L188.118,17.594 L188.186,17.533 L188.258,17.476 L188.334,17.424 L188.414,17.377 L188.497,17.335 L188.583,17.298 L188.674,17.265 L188.768,17.237 L188.866,17.215 L188.967,17.197 L189.073,17.183 L189.181,17.175 L189.294,17.172 L189.417,17.173 L189.535,17.181 L189.648,17.194 L189.756,17.212 L189.858,17.236 L189.956,17.266 L190.048,17.301 L190.136,17.342 L190.218,17.389 L190.295,17.44 L190.367,17.498 L190.434,17.561 L190.496,17.629 L190.552,17.701 L190.603,17.777 L190.649,17.856 L190.69,17.94 L190.725,18.028 L190.755,18.12 L190.78,18.216 L190.799,18.316 L190.814,18.42 L190.822,18.529 L190.826,18.641 L190.824,18.754 L190.815,18.863 L190.8,18.968 L190.778,19.069 L190.749,19.166 L190.714,19.259 L190.672,19.347 L190.624,19.431 L190.569,19.512 L190.508,19.588 L190.44,19.66 L190.365,19.728 L190.285,19.791 L190.2,19.849 L190.109,19.901 L190.012,19.948 L189.911,19.99 L189.804,20.026 L189.691,20.057 L189.573,20.083 L189.45,20.103 L189.321,20.117 L189.187,20.127 L189.048,20.131 L188.484,20.135 L188.491,21.034 L189.078,21.029 L189.235,21.03 L189.386,21.036 L189.531,21.048 L189.669,21.065 L189.801,21.087 L189.927,21.115 L190.047,21.148 L190.161,21.186 L190.268,21.229 L190.369,21.277 L190.464,21.331 L190.553,21.39 L190.634,21.454 L190.71,21.522 L190.778,21.593 L190.838,21.67 L190.892,21.75 L190.939,21.834 L190.979,21.922 L191.011,22.015 L191.037,22.111 L191.056,22.212 L191.067,22.317 L191.072,22.426 L191.07,22.551 L191.062,22.671 L191.047,22.787 L191.026,22.896 L190.999,23.001 L190.966,23.1 L190.926,23.194 L190.88,23.283 L190.828,23.367 L190.77,23.445 L190.705,23.518 L190.634,23.587 L190.558,23.649 L190.477,23.706 L190.392,23.759 L190.302,23.805 L190.207,23.846 L190.107,23.882 L190.003,23.913 L189.894,23.938 L189.78,23.958 L189.661,23.973 L189.538,23.982 L189.41,23.985 L189.159,23.978 L188.927,23.95 L188.713,23.901 L188.518,23.833 L188.342,23.745 L188.184,23.636 L188.045,23.507 L187.924,23.358 L187.822,23.189 L187.739,23 L187.675,22.791 L187.629,22.561 L186.558,22.67 L186.587,22.847 L186.624,23.017 L186.669,23.179 L186.723,23.335 L186.784,23.482 L186.854,23.622 L186.932,23.755 L187.019,23.88 L187.113,23.998 L187.216,24.108 L187.326,24.211 L187.445,24.306 L187.572,24.394 L187.706,24.473 L187.846,24.545 L187.993,24.61 L188.147,24.667 L188.308,24.715 L188.476,24.756 L188.65,24.789 L188.832,24.815 L189.02,24.832 L189.215,24.842 L189.418,24.844 z M172.529,26.503 L172.689,26.493 L172.854,26.476 L173.021,26.45 L173.193,26.415 L173.368,26.372 L173.548,26.321 L173.758,26.251 L173.957,26.174 L174.145,26.089 L174.322,25.996 L174.489,25.896 L174.645,25.788 L174.789,25.672 L174.923,25.549 L175.046,25.418 L175.158,25.279 L175.258,25.133 L175.349,24.979 L175.427,24.819 L175.493,24.654 L175.546,24.485 L175.587,24.311 L175.616,24.134 L175.632,23.951 L175.636,23.765 L175.628,23.574 L175.607,23.378 L175.573,23.179 L175.528,22.975 L175.469,22.766 L175.409,22.586 L175.341,22.414 L175.266,22.251 L175.182,22.097 L175.091,21.951 L174.992,21.814 L174.886,21.686 L174.772,21.566 L174.65,21.455 L174.521,21.353 L174.383,21.26 L174.239,21.175 L174.088,21.1 L173.934,21.036 L173.777,20.985 L173.616,20.945 L173.452,20.917 L173.284,20.9 L173.113,20.894 L172.938,20.9 L172.759,20.918 L172.577,20.948 L172.392,20.989 L172.203,21.041 L172.047,21.093 L171.897,21.15 L171.754,21.213 L171.617,21.281 L171.486,21.355 L171.362,21.434 L171.244,21.519 L171.133,21.609 L171.028,21.705 L170.93,21.807 L170.838,21.914 L170.753,22.027 L170.156,19.553 L173.664,18.481 L173.406,17.638 L168.996,18.986 L170.006,23.21 L170.973,22.914 L171.016,22.847 L171.06,22.782 L171.104,22.72 L171.149,22.66 L171.194,22.603 L171.241,22.548 L171.288,22.496 L171.336,22.446 L171.385,22.399 L171.435,22.353 L171.485,22.311 L171.536,22.271 L171.588,22.233 L171.641,22.196 L171.695,22.161 L171.751,22.128 L171.808,22.095 L171.867,22.065 L171.927,22.036 L171.988,22.009 L172.05,21.983 L172.114,21.959 L172.179,21.936 L172.245,21.915 L172.372,21.879 L172.498,21.852 L172.62,21.832 L172.74,21.821 L172.858,21.817 L172.973,21.821 L173.086,21.833 L173.197,21.853 L173.305,21.881 L173.411,21.916 L173.513,21.96 L173.614,22.012 L173.712,22.07 L173.804,22.133 L173.891,22.203 L173.973,22.279 L174.05,22.361 L174.122,22.449 L174.188,22.543 L174.25,22.643 L174.307,22.749 L174.358,22.861 L174.405,22.979 L174.446,23.103 L174.487,23.248 L174.52,23.389 L174.545,23.527 L174.562,23.662 L174.571,23.794 L174.573,23.922 L174.566,24.047 L174.552,24.168 L174.529,24.286 L174.499,24.401 L174.461,24.513 L174.415,24.621 L174.362,24.725 L174.302,24.823 L174.235,24.916 L174.161,25.004 L174.081,25.085 L173.993,25.162 L173.898,25.233 L173.796,25.298 L173.687,25.358 L173.571,25.412 L173.449,25.461 L173.319,25.505 L173.107,25.561 L172.903,25.597 L172.709,25.612 L172.523,25.608 L172.346,25.584 L172.178,25.539 L172.019,25.474 L171.868,25.389 L171.727,25.283 L171.593,25.157 L171.469,25.012 L171.354,24.846 L170.389,25.268 L170.467,25.405 L170.549,25.534 L170.637,25.654 L170.729,25.767 L170.827,25.872 L170.929,25.969 L171.037,26.058 L171.149,26.139 L171.266,26.212 L171.389,26.277 L171.516,26.334 L171.649,26.383 L171.786,26.424 L171.927,26.457 L172.072,26.481 L172.221,26.496 L172.373,26.504 z M170.034,27.206 L169.776,26.363 L167.889,26.94 L165.76,19.975 L164.847,20.255 L163.415,22.136 L163.701,23.071 L165.052,21.227 L166.892,27.245 L164.915,27.849 L165.173,28.692 z M213.977,26.616 L215.004,26.92 L215.222,26.183 L214.195,25.879 L215.638,21.009 L214.659,20.719 L209.872,24.616 L209.658,25.336 L213.096,26.355 L212.593,28.054 L213.474,28.314 z M210.735,24.854 L210.847,24.775 L211.239,24.48 L213.917,22.305 L213.934,22.292 L213.952,22.277 L213.972,22.26 L213.993,22.241 L214.016,22.221 L214.041,22.198 L214.066,22.175 L214.094,22.149 L214.123,22.121 L214.153,22.092 L214.185,22.061 L214.218,22.028 L214.31,21.938 L214.359,21.89 L214.379,21.87 L214.396,21.852 L214.411,21.837 L214.424,21.824 L214.434,21.813 L214.441,21.805 L214.445,21.8 L213.314,25.618 z M218.599,29.838 L218.772,29.822 L218.94,29.796 L219.104,29.757 L219.263,29.707 L219.418,29.646 L219.567,29.572 L219.712,29.488 L219.849,29.394 L219.978,29.29 L220.1,29.177 L220.215,29.053 L220.322,28.92 L220.421,28.777 L220.513,28.624 L220.598,28.461 L220.675,28.289 L220.744,28.107 L220.807,27.914 L220.853,27.743 L220.888,27.574 L220.913,27.408 L220.927,27.245 L220.931,27.084 L220.925,26.927 L220.908,26.772 L220.88,26.62 L220.842,26.47 L220.793,26.324 L220.734,26.18 L220.664,26.039 L220.585,25.904 L220.498,25.775 L220.401,25.654 L220.296,25.54 L220.183,25.432 L220.06,25.333 L219.929,25.24 L219.789,25.154 L219.64,25.076 L219.482,25.005 L219.316,24.941 L219.141,24.885 L218.992,24.844 L218.845,24.811 L218.7,24.786 L218.557,24.768 L218.416,24.758 L218.278,24.756 L218.142,24.761 L218.008,24.775 L217.876,24.796 L217.747,24.825 L217.619,24.861 L217.494,24.905 L218.312,22.664 L221.611,23.641 L221.846,22.848 L217.696,21.618 L216.298,25.441 L217.211,25.711 L217.279,25.681 L217.346,25.653 L217.413,25.627 L217.479,25.604 L217.545,25.583 L217.609,25.564 L217.673,25.547 L217.737,25.533 L217.799,25.521 L217.861,25.512 L217.923,25.504 L217.983,25.499 L218.044,25.497 L218.104,25.495 L218.165,25.497 L218.226,25.499 L218.288,25.504 L218.35,25.51 L218.411,25.519 L218.474,25.529 L218.536,25.541 L218.599,25.555 L218.662,25.571 L218.725,25.589 L218.843,25.627 L218.954,25.67 L219.06,25.718 L219.16,25.771 L219.254,25.829 L219.341,25.891 L219.423,25.959 L219.5,26.031 L219.57,26.109 L219.634,26.191 L219.692,26.278 L219.745,26.37 L219.791,26.465 L219.83,26.562 L219.863,26.662 L219.888,26.763 L219.906,26.866 L219.917,26.972 L219.921,27.079 L219.917,27.189 L219.907,27.3 L219.889,27.414 L219.865,27.529 L219.833,27.647 L219.79,27.78 L219.743,27.907 L219.692,28.028 L219.635,28.141 L219.575,28.248 L219.51,28.348 L219.44,28.442 L219.366,28.529 L219.287,28.61 L219.204,28.683 L219.116,28.751 L219.024,28.811 L218.929,28.865 L218.832,28.91 L218.731,28.947 L218.629,28.977 L218.523,28.998 L218.415,29.012 L218.304,29.018 L218.191,29.017 L218.075,29.007 L217.956,28.99 L217.835,28.964 L217.712,28.931 L217.517,28.865 L217.339,28.788 L217.178,28.699 L217.035,28.6 L216.909,28.489 L216.801,28.366 L216.71,28.233 L216.636,28.088 L216.579,27.932 L216.54,27.765 L216.518,27.586 L216.514,27.397 L215.538,27.226 L215.528,27.373 L215.526,27.517 L215.532,27.657 L215.546,27.793 L215.568,27.926 L215.598,28.054 L215.636,28.18 L215.682,28.301 L215.736,28.419 L215.798,28.534 L215.868,28.644 L215.947,28.751 L216.033,28.854 L216.127,28.953 L216.228,29.047 L216.336,29.136 L216.451,29.221 L216.574,29.301 L216.704,29.376 L216.842,29.447 L216.986,29.514 L217.138,29.576 L217.298,29.633 L217.464,29.686 L217.665,29.74 L217.861,29.783 L218.053,29.814 L218.239,29.834 L218.421,29.841 z M155.197,41.903 L155.424,42.296 L159.676,40.035 L164.075,38.076 L168.6,36.429 L173.23,35.101 L177.94,34.1 L182.709,33.43 L187.514,33.094 L192.329,33.094 L197.133,33.43 L201.902,34.1 L206.613,35.101 L211.242,36.429 L215.767,38.076 L220.167,40.035 L224.419,42.296 L224.646,41.903 L225.576,42.439 L228.406,37.526 L226.441,36.394 L224.298,40.114 L220.987,38.353 L220.328,38.06 L222.104,34.163 L220.041,33.222 L218.256,37.137 L216.468,36.341 L214.106,35.482 L215.511,31.413 L213.367,30.673 L211.975,34.706 L211.82,34.65 L207.68,33.462 L208.687,29.302 L206.483,28.769 L205.472,32.947 L202.227,32.258 L201.084,32.097 L201.693,27.849 L199.448,27.527 L198.839,31.782 L197.329,31.569 L194.39,31.364 L194.592,27.066 L192.327,26.959 L192.126,31.224 L187.655,31.224 L187.45,26.961 L185.185,27.07 L185.391,31.368 L182.514,31.569 L180.943,31.79 L180.33,27.535 L178.085,27.859 L178.697,32.106 L177.616,32.258 L174.31,32.96 L173.296,28.783 L171.092,29.318 L172.103,33.48 L168.022,34.65 L167.81,34.727 L166.413,30.694 L164.27,31.436 L165.678,35.503 L163.374,36.341 L161.53,37.163 L159.742,33.249 L157.679,34.191 L159.458,38.085 L158.856,38.353 L155.49,40.143 L153.344,36.426 L151.38,37.56 L154.215,42.47 z M149.974,35.703 L150.138,35.687 L150.303,35.657 L150.468,35.613 L150.634,35.553 L150.801,35.478 L150.968,35.389 L151.129,35.289 L151.277,35.181 L151.412,35.067 L151.534,34.946 L151.643,34.818 L151.738,34.682 L151.821,34.54 L151.89,34.391 L151.946,34.235 L151.99,34.072 L152.02,33.902 L152.037,33.725 L152.04,33.541 L152.031,33.352 L152.01,33.158 L151.975,32.957 L151.928,32.751 L151.868,32.539 L151.795,32.322 L151.709,32.099 L151.61,31.87 L151.498,31.635 L151.374,31.395 L151.237,31.149 L151.09,30.903 L150.943,30.672 L150.795,30.455 L150.646,30.252 L150.496,30.063 L150.345,29.889 L150.194,29.729 L150.042,29.583 L149.888,29.451 L149.734,29.334 L149.579,29.231 L149.423,29.142 L149.267,29.068 L149.108,29.009 L148.949,28.965 L148.788,28.936 L148.626,28.922 L148.463,28.924 L148.298,28.94 L148.132,28.971 L147.965,29.018 L147.796,29.079 L147.626,29.156 L147.455,29.248 L147.285,29.352 L147.13,29.464 L146.988,29.581 L146.86,29.704 L146.747,29.834 L146.647,29.969 L146.562,30.11 L146.491,30.258 L146.433,30.412 L146.39,30.571 L146.361,30.737 L146.346,30.909 L146.344,31.087 L146.355,31.272 L146.379,31.463 L146.416,31.661 L146.466,31.866 L146.529,32.078 L146.606,32.296 L146.695,32.522 L146.797,32.754 L146.912,32.992 L147.04,33.238 L147.181,33.49 L147.326,33.733 L147.473,33.962 L147.62,34.177 L147.769,34.378 L147.919,34.565 L148.07,34.738 L148.223,34.897 L148.377,35.042 L148.532,35.173 L148.688,35.29 L148.846,35.393 L149.005,35.481 L149.165,35.555 L149.325,35.615 L149.486,35.659 L149.648,35.688 L149.811,35.703 z M149.857,34.951 L149.748,34.932 L149.64,34.902 L149.532,34.861 L149.424,34.809 L149.317,34.745 L149.208,34.67 L149.099,34.583 L148.988,34.484 L148.876,34.373 L148.763,34.25 L148.648,34.115 L148.532,33.968 L148.415,33.809 L148.297,33.639 L148.178,33.456 L148.057,33.262 L147.935,33.055 L147.814,32.84 L147.702,32.633 L147.601,32.434 L147.51,32.243 L147.429,32.059 L147.359,31.884 L147.298,31.716 L147.247,31.557 L147.207,31.405 L147.176,31.261 L147.156,31.125 L147.146,30.997 L147.146,30.875 L147.156,30.757 L147.176,30.645 L147.206,30.537 L147.246,30.434 L147.296,30.336 L147.355,30.243 L147.425,30.155 L147.505,30.072 L147.594,29.993 L147.694,29.92 L147.804,29.851 L147.915,29.792 L148.026,29.745 L148.136,29.708 L148.246,29.682 L148.355,29.668 L148.463,29.665 L148.571,29.672 L148.678,29.691 L148.785,29.721 L148.891,29.762 L148.997,29.814 L149.102,29.877 L149.207,29.953 L149.315,30.04 L149.423,30.139 L149.534,30.251 L149.646,30.375 L149.76,30.512 L149.875,30.66 L149.993,30.821 L150.112,30.994 L150.232,31.179 L150.354,31.377 L150.478,31.587 L150.594,31.792 L150.7,31.99 L150.796,32.182 L150.884,32.368 L150.961,32.547 L151.03,32.719 L151.089,32.885 L151.138,33.045 L151.178,33.198 L151.209,33.344 L151.23,33.484 L151.241,33.617 L151.243,33.744 L151.235,33.866 L151.218,33.982 L151.191,34.092 L151.154,34.197 L151.107,34.296 L151.051,34.39 L150.985,34.478 L150.909,34.561 L150.824,34.638 L150.729,34.71 L150.624,34.776 L150.514,34.834 L150.404,34.881 L150.294,34.918 L150.184,34.943 L150.075,34.957 L149.966,34.96 z M184.963,41.944 L184.927,40.119 L184.895,39.047 L185.216,40.11 L185.754,41.751 L189.317,51.024 L190.613,51.024 L194.191,41.584 L194.256,41.406 L194.322,41.217 L194.39,41.018 L194.459,40.808 L194.529,40.588 L194.6,40.357 L194.673,40.116 L194.748,39.865 L194.823,39.603 L194.9,39.33 L194.978,39.047 L194.964,39.28 L194.951,39.514 L194.94,39.75 L194.93,39.988 L194.92,40.227 L194.912,40.467 L194.906,40.71 L194.9,40.953 L194.896,41.199 L194.893,41.446 L194.891,41.694 L194.89,41.944 L194.89,51.024 L196.551,51.024 L196.551,37.417 L194.185,37.417 L190.633,46.851 L190.617,46.889 L190.599,46.935 L190.579,46.99 L190.557,47.052 L190.532,47.122 L190.505,47.201 L190.476,47.288 L190.445,47.383 L190.412,47.486 L190.376,47.597 L190.338,47.716 L190.298,47.843 L190.258,47.971 L190.221,48.094 L190.185,48.211 L190.153,48.322 L190.122,48.428 L190.094,48.528 L190.068,48.623 L190.045,48.712 L190.024,48.796 L190.005,48.874 L189.989,48.947 L189.975,49.014 L189.964,48.963 L189.952,48.907 L189.938,48.847 L189.922,48.781 L189.905,48.71 L189.886,48.634 L189.865,48.553 L189.843,48.467 L189.819,48.376 L189.793,48.28 L189.766,48.179 L189.737,48.073 L189.707,47.965 L189.677,47.858 L189.647,47.752 L189.616,47.647 L189.586,47.544 L189.555,47.441 L189.524,47.34 L189.493,47.24 L189.461,47.141 L189.429,47.043 L189.398,46.947 L189.366,46.851 L185.746,37.417 L183.322,37.417 L183.322,51.024 L184.963,51.024 z M232.885,72.26 L233.179,72.219 L233.47,72.157 L233.755,72.075 L234.034,71.974 L234.305,71.853 L234.567,71.714 L234.819,71.557 L235.059,71.382 L235.286,71.191 L235.5,70.985 L235.698,70.765 L235.881,70.531 L236.047,70.285 L236.195,70.028 L236.325,69.761 L236.436,69.486 L236.528,69.203 L236.6,68.916 L236.652,68.623 L236.682,68.328 L236.693,68.032 L236.682,67.735 L236.652,67.44 L236.6,67.147 L236.528,66.859 L236.436,66.577 L236.325,66.302 L236.195,66.035 L236.047,65.778 L235.881,65.532 L235.698,65.298 L235.5,65.078 L235.286,64.872 L235.059,64.681 L234.819,64.506 L234.567,64.349 L234.305,64.21 L234.034,64.089 L233.755,63.988 L233.47,63.906 L233.179,63.844 L232.885,63.803 L232.589,63.782 L232.292,63.782 L231.996,63.803 L231.703,63.844 L231.412,63.906 L231.127,63.988 L230.848,64.089 L230.577,64.21 L230.315,64.349 L230.063,64.506 L229.823,64.681 L229.596,64.872 L229.382,65.078 L229.184,65.298 L229.001,65.532 L228.835,65.778 L228.687,66.035 L228.557,66.302 L228.446,66.577 L228.354,66.859 L228.282,67.147 L228.23,67.44 L228.199,67.735 L228.189,68.032 L228.199,68.328 L228.23,68.623 L228.282,68.916 L228.354,69.203 L228.446,69.486 L228.557,69.761 L228.687,70.028 L228.835,70.285 L229.001,70.531 L229.184,70.765 L229.382,70.985 L229.596,71.191 L229.823,71.382 L230.063,71.557 L230.315,71.714 L230.577,71.853 L230.848,71.974 L231.127,72.075 L231.412,72.157 L231.703,72.219 L231.996,72.26 L232.292,72.281 L232.589,72.281 z M147.846,72.26 L148.14,72.219 L148.43,72.157 L148.716,72.075 L148.994,71.974 L149.266,71.853 L149.528,71.714 L149.779,71.557 L150.019,71.382 L150.247,71.191 L150.46,70.985 L150.659,70.765 L150.842,70.531 L151.007,70.285 L151.156,70.028 L151.286,69.761 L151.397,69.486 L151.489,69.203 L151.561,68.916 L151.612,68.623 L151.643,68.328 L151.654,68.032 L151.643,67.735 L151.612,67.44 L151.561,67.147 L151.489,66.859 L151.397,66.577 L151.286,66.302 L151.156,66.035 L151.007,65.778 L150.842,65.532 L150.659,65.298 L150.46,65.078 L150.247,64.872 L150.019,64.681 L149.779,64.506 L149.528,64.349 L149.266,64.21 L148.994,64.089 L148.716,63.988 L148.43,63.906 L148.14,63.844 L147.846,63.803 L147.55,63.782 L147.253,63.782 L146.957,63.803 L146.663,63.844 L146.373,63.906 L146.088,63.988 L145.809,64.089 L145.538,64.21 L145.276,64.349 L145.024,64.506 L144.784,64.681 L144.556,64.872 L144.343,65.078 L144.144,65.298 L143.962,65.532 L143.796,65.778 L143.647,66.035 L143.517,66.302 L143.406,66.577 L143.314,66.859 L143.243,67.147 L143.191,67.44 L143.16,67.735 L143.15,68.032 L143.16,68.328 L143.191,68.623 L143.243,68.916 L143.314,69.203 L143.406,69.486 L143.517,69.761 L143.647,70.028 L143.796,70.285 L143.962,70.531 L144.144,70.765 L144.343,70.985 L144.556,71.191 L144.784,71.382 L145.024,71.557 L145.276,71.714 L145.538,71.853 L145.809,71.974 L146.088,72.075 L146.373,72.157 L146.663,72.219 L146.957,72.26 L147.253,72.281 L147.55,72.281 z M95.304,105.319 L98.411,102.712 L101.329,99.894 L104.043,96.88 L106.54,93.684 L108.808,90.321 L110.836,86.809 L112.614,83.163 L114.133,79.402 L115.387,75.545 L116.368,71.609 L117.072,67.615 L117.496,63.581 L117.638,59.528 L117.496,55.474 L117.072,51.44 L116.368,47.446 L115.387,43.51 L114.133,39.653 L112.614,35.892 L110.836,32.246 L108.808,28.734 L106.54,25.371 L104.043,22.175 L101.329,19.161 L98.411,16.343 L95.304,13.736 L92.022,11.352 L88.583,9.203 L85.001,7.298 L81.296,5.649 L77.484,4.261 L73.586,3.143 L69.618,2.3 L65.602,1.736 L61.555,1.453 L57.5,1.453 L53.453,1.736 L49.437,2.3 L45.469,3.143 L41.571,4.261 L37.759,5.649 L34.054,7.298 L30.472,9.203 L27.033,11.352 L23.751,13.736 L20.644,16.343 L17.726,19.161 L15.013,22.175 L12.516,25.371 L10.247,28.734 L8.219,32.246 L6.441,35.892 L4.922,39.653 L3.668,43.51 L2.687,47.446 L1.983,51.44 L1.559,55.474 L1.417,59.528 L1.559,63.581 L1.983,67.615 L2.687,71.609 L3.668,75.545 L4.922,79.402 L6.441,83.163 L8.219,86.809 L10.247,90.321 L12.516,93.684 L15.013,96.88 L17.726,99.894 L20.644,102.712 L23.751,105.319 L26.929,107.628 L26.929,90.827 L26.962,89.879 L27.061,88.936 L27.226,88.003 L27.455,87.083 L27.748,86.181 L28.104,85.302 L28.519,84.45 L28.993,83.629 L29.523,82.843 L30.107,82.096 L30.741,81.391 L31.423,80.733 L32.149,80.123 L32.916,79.566 L33.72,79.064 L34.557,78.619 L35.424,78.233 L36.315,77.909 L37.226,77.648 L38.153,77.45 L38.457,77.408 L38.637,76.687 L39.106,75.244 L39.674,73.838 L40.339,72.474 L41.098,71.161 L41.946,69.903 L42.88,68.708 L43.895,67.581 L44.986,66.527 L46.148,65.552 L47.375,64.66 L48.662,63.856 L50.001,63.144 L51.386,62.527 L52.812,62.008 L54.27,61.59 L55.754,61.275 L57.256,61.064 L58.769,60.958 L60.286,60.958 L61.799,61.064 L63.301,61.275 L64.785,61.59 L66.243,62.008 L67.669,62.527 L69.054,63.144 L70.394,63.856 L71.68,64.66 L72.907,65.552 L74.069,66.527 L75.16,67.581 L76.175,68.708 L77.109,69.903 L77.958,71.161 L78.716,72.474 L79.381,73.838 L79.949,75.244 L80.418,76.687 L80.598,77.408 L80.902,77.45 L81.829,77.648 L82.74,77.909 L83.631,78.233 L84.498,78.619 L85.335,79.064 L86.139,79.566 L86.906,80.123 L87.632,80.733 L88.314,81.391 L88.948,82.096 L89.532,82.843 L90.062,83.629 L90.536,84.45 L90.952,85.302 L91.307,86.181 L91.6,87.083 L91.829,88.003 L91.994,88.936 L92.093,89.879 L92.126,90.827 L92.126,107.628 z M93.543,90.709 L93.509,89.72 L93.405,88.736 L93.233,87.762 L92.994,86.802 L92.689,85.861 L92.318,84.944 L91.884,84.055 L91.39,83.198 L90.837,82.378 L90.227,81.598 L89.565,80.863 L88.854,80.176 L88.096,79.54 L87.296,78.958 L86.457,78.434 L85.583,77.97 L84.679,77.567 L83.75,77.229 L82.799,76.956 L81.831,76.751 L81.514,76.706 L81.326,75.954 L80.837,74.449 L80.244,72.981 L79.55,71.558 L78.759,70.188 L77.874,68.875 L76.899,67.628 L75.84,66.452 L74.701,65.352 L73.489,64.335 L72.208,63.404 L70.866,62.566 L69.469,61.823 L68.022,61.179 L66.535,60.637 L65.014,60.201 L63.465,59.872 L61.898,59.652 L60.319,59.541 L58.736,59.541 L57.157,59.652 L55.59,59.872 L54.041,60.201 L52.52,60.637 L51.033,61.179 L49.586,61.823 L48.189,62.566 L46.847,63.404 L45.566,64.335 L44.354,65.352 L43.215,66.452 L42.156,67.628 L41.181,68.875 L40.296,70.188 L39.505,71.558 L38.811,72.981 L38.218,74.449 L37.729,75.954 L37.541,76.706 L37.224,76.751 L36.256,76.956 L35.305,77.229 L34.376,77.567 L33.472,77.97 L32.598,78.434 L31.759,78.958 L30.959,79.54 L30.201,80.176 L29.49,80.863 L28.828,81.598 L28.219,82.378 L27.666,83.198 L27.171,84.055 L26.737,84.944 L26.366,85.861 L26.061,86.802 L25.822,87.762 L25.65,88.736 L25.546,89.72 L25.512,90.709 L25.512,104.847 L24.624,104.202 L21.593,101.659 L18.746,98.91 L16.098,95.969 L13.662,92.851 L11.449,89.57 L9.471,86.143 L7.736,82.587 L6.254,78.918 L5.031,75.154 L4.074,71.315 L3.386,67.418 L2.973,63.482 L2.835,59.528 L2.973,55.573 L3.386,51.637 L4.074,47.74 L5.031,43.901 L6.254,40.137 L7.736,36.469 L9.471,32.912 L11.449,29.485 L13.662,26.204 L16.098,23.086 L18.746,20.145 L21.593,17.397 L24.624,14.853 L27.825,12.527 L31.181,10.43 L34.675,8.572 L38.29,6.963 L42.009,5.609 L45.812,4.519 L49.683,3.696 L53.601,3.145 L57.549,2.869 L61.506,2.869 L65.454,3.145 L69.372,3.696 L73.243,4.519 L77.047,5.609 L80.765,6.963 L84.38,8.572 L87.874,10.43 L91.23,12.527 L94.431,14.853 L97.462,17.397 L100.309,20.145 L102.957,23.086 L105.393,26.204 L107.606,29.485 L109.584,32.912 L111.319,36.469 L112.801,40.137 L114.024,43.901 L114.982,47.74 L115.669,51.637 L116.082,55.573 L116.22,59.528 L116.082,63.482 L115.669,67.418 L114.982,71.315 L114.024,75.154 L112.801,78.918 L111.319,82.587 L109.584,86.143 L107.606,89.57 L105.393,92.851 L102.957,95.969 L100.309,98.91 L97.462,101.659 L94.431,104.202 L93.543,104.847 z M55.725,21.247 L55.891,21.235 L56.05,21.215 L56.204,21.187 L56.35,21.15 L56.491,21.105 L56.625,21.051 L56.752,20.989 L56.873,20.918 L56.987,20.839 L57.095,20.752 L57.197,20.656 L57.292,20.551 L57.379,20.439 L57.459,20.321 L57.529,20.197 L57.592,20.067 L57.646,19.931 L57.692,19.789 L57.73,19.641 L57.76,19.487 L57.781,19.327 L57.794,19.161 L57.798,18.988 L57.794,18.81 L57.783,18.646 L57.765,18.488 L57.739,18.336 L57.707,18.19 L57.666,18.05 L57.618,17.916 L57.563,17.788 L57.501,17.666 L57.431,17.551 L57.354,17.441 L57.27,17.337 L57.178,17.239 L57.08,17.148 L56.977,17.066 L56.87,16.992 L56.757,16.927 L56.639,16.87 L56.516,16.821 L56.388,16.782 L56.255,16.75 L56.117,16.727 L55.975,16.713 L55.827,16.707 L55.674,16.709 L55.583,16.715 L55.494,16.724 L55.408,16.735 L55.323,16.75 L55.24,16.768 L55.158,16.789 L55.079,16.813 L55.001,16.841 L54.926,16.871 L54.852,16.905 L54.78,16.942 L54.71,16.981 L54.642,17.023 L54.577,17.069 L54.515,17.116 L54.455,17.167 L54.399,17.22 L54.345,17.277 L54.293,17.336 L54.245,17.398 L54.199,17.462 L54.156,17.529 L54.116,17.6 L54.079,17.673 L54.072,17.455 L54.071,17.246 L54.077,17.046 L54.088,16.854 L54.105,16.67 L54.128,16.495 L54.157,16.329 L54.192,16.171 L54.233,16.021 L54.28,15.881 L54.333,15.748 L54.392,15.625 L54.457,15.509 L54.527,15.404 L54.602,15.308 L54.682,15.221 L54.767,15.144 L54.857,15.077 L54.952,15.019 L55.052,14.97 L55.157,14.931 L55.268,14.902 L55.383,14.883 L55.503,14.873 L55.642,14.872 L55.772,14.884 L55.895,14.907 L56.01,14.942 L56.117,14.988 L56.216,15.047 L56.308,15.117 L56.391,15.199 L56.467,15.293 L56.534,15.399 L56.594,15.516 L56.646,15.645 L57.461,15.462 L57.377,15.246 L57.279,15.051 L57.166,14.874 L57.038,14.718 L56.895,14.581 L56.738,14.464 L56.565,14.367 L56.378,14.289 L56.176,14.231 L55.959,14.193 L55.727,14.174 L55.481,14.175 L55.292,14.19 L55.112,14.218 L54.939,14.259 L54.774,14.313 L54.617,14.38 L54.469,14.46 L54.327,14.552 L54.194,14.658 L54.069,14.776 L53.952,14.908 L53.843,15.053 L53.741,15.21 L53.649,15.38 L53.565,15.56 L53.491,15.751 L53.426,15.954 L53.37,16.168 L53.323,16.393 L53.285,16.629 L53.257,16.876 L53.238,17.134 L53.228,17.404 L53.227,17.685 L53.235,17.976 L53.251,18.245 L53.275,18.503 L53.307,18.75 L53.346,18.985 L53.393,19.209 L53.449,19.422 L53.512,19.623 L53.583,19.814 L53.662,19.992 L53.748,20.16 L53.843,20.317 L53.945,20.462 L54.056,20.595 L54.173,20.716 L54.297,20.824 L54.428,20.92 L54.566,21.004 L54.71,21.076 L54.862,21.135 L55.021,21.182 L55.186,21.216 L55.359,21.239 L55.538,21.249 z M55.468,20.549 L55.375,20.535 L55.284,20.514 L55.196,20.486 L55.111,20.451 L55.028,20.408 L54.948,20.359 L54.871,20.302 L54.797,20.237 L54.725,20.166 L54.655,20.088 L54.59,20.003 L54.53,19.915 L54.475,19.822 L54.425,19.725 L54.38,19.624 L54.341,19.518 L54.307,19.409 L54.278,19.295 L54.254,19.176 L54.235,19.054 L54.221,18.927 L54.213,18.796 L54.211,18.692 L54.214,18.592 L54.223,18.495 L54.237,18.402 L54.256,18.312 L54.28,18.226 L54.31,18.144 L54.345,18.065 L54.385,17.99 L54.431,17.918 L54.482,17.85 L54.538,17.786 L54.599,17.726 L54.663,17.67 L54.731,17.62 L54.802,17.574 L54.877,17.533 L54.955,17.497 L55.037,17.467 L55.122,17.44 L55.21,17.419 L55.302,17.402 L55.397,17.391 L55.496,17.384 L55.601,17.382 L55.702,17.386 L55.8,17.396 L55.894,17.412 L55.984,17.433 L56.07,17.461 L56.153,17.494 L56.232,17.533 L56.307,17.578 L56.379,17.629 L56.447,17.686 L56.511,17.748 L56.571,17.815 L56.627,17.888 L56.678,17.965 L56.724,18.048 L56.765,18.135 L56.802,18.228 L56.834,18.325 L56.861,18.428 L56.883,18.535 L56.9,18.648 L56.913,18.765 L56.921,18.888 L56.924,19.011 L56.922,19.13 L56.914,19.244 L56.902,19.354 L56.885,19.46 L56.862,19.562 L56.834,19.66 L56.801,19.753 L56.763,19.842 L56.72,19.927 L56.672,20.008 L56.619,20.084 L56.561,20.155 L56.499,20.22 L56.433,20.28 L56.364,20.333 L56.29,20.381 L56.212,20.423 L56.131,20.46 L56.045,20.49 L55.955,20.515 L55.862,20.534 L55.765,20.547 L55.663,20.554 L55.564,20.555 z M63.307,20.909 L63.32,20.756 L63.335,20.604 L63.353,20.453 L63.374,20.304 L63.399,20.155 L63.425,20.007 L63.455,19.86 L63.488,19.714 L63.524,19.569 L63.562,19.425 L63.604,19.282 L63.648,19.14 L63.696,18.997 L63.746,18.854 L63.799,18.711 L63.856,18.567 L63.915,18.424 L63.977,18.28 L64.042,18.137 L64.111,17.993 L64.182,17.849 L64.256,17.705 L64.333,17.56 L64.416,17.412 L64.509,17.254 L64.61,17.087 L64.72,16.911 L64.839,16.726 L64.966,16.532 L65.103,16.329 L65.249,16.117 L65.403,15.896 L65.566,15.666 L65.739,15.428 L65.919,15.18 L65.956,14.481 L61.509,14.247 L61.471,14.978 L65.088,15.167 L64.864,15.462 L64.651,15.75 L64.447,16.034 L64.254,16.312 L64.072,16.584 L63.9,16.851 L63.739,17.113 L63.588,17.37 L63.447,17.62 L63.317,17.866 L63.198,18.106 L63.088,18.341 L62.989,18.572 L62.897,18.801 L62.813,19.029 L62.736,19.256 L62.667,19.481 L62.606,19.704 L62.553,19.927 L62.507,20.147 L62.469,20.367 L62.438,20.584 L62.416,20.801 L62.4,21.016 L63.298,21.063 z M71.696,22.592 L71.851,22.582 L72.001,22.564 L72.145,22.538 L72.282,22.503 L72.414,22.46 L72.539,22.409 L72.659,22.35 L72.773,22.282 L72.88,22.206 L72.98,22.124 L73.073,22.034 L73.159,21.938 L73.236,21.835 L73.307,21.725 L73.371,21.608 L73.427,21.484 L73.476,21.354 L73.517,21.216 L73.551,21.072 L73.578,20.921 L73.592,20.811 L73.6,20.705 L73.603,20.6 L73.601,20.498 L73.593,20.398 L73.58,20.301 L73.561,20.206 L73.537,20.113 L73.507,20.023 L73.473,19.935 L73.432,19.849 L73.387,19.765 L73.337,19.685 L73.282,19.609 L73.222,19.536 L73.158,19.468 L73.089,19.404 L73.015,19.344 L72.937,19.288 L72.854,19.236 L72.767,19.189 L72.674,19.145 L72.577,19.106 L72.476,19.071 L72.479,19.051 L72.572,19.043 L72.662,19.031 L72.75,19.013 L72.836,18.991 L72.919,18.963 L72.999,18.93 L73.077,18.892 L73.152,18.85 L73.225,18.802 L73.295,18.749 L73.363,18.691 L73.428,18.628 L73.489,18.561 L73.547,18.492 L73.6,18.419 L73.65,18.344 L73.695,18.266 L73.737,18.186 L73.774,18.102 L73.807,18.016 L73.836,17.927 L73.861,17.835 L73.882,17.741 L73.899,17.644 L73.915,17.509 L73.922,17.378 L73.921,17.25 L73.911,17.126 L73.892,17.006 L73.865,16.889 L73.829,16.775 L73.785,16.665 L73.732,16.559 L73.67,16.456 L73.6,16.356 L73.521,16.26 L73.434,16.169 L73.341,16.084 L73.242,16.004 L73.135,15.93 L73.022,15.862 L72.902,15.8 L72.775,15.744 L72.641,15.693 L72.501,15.648 L72.354,15.609 L72.2,15.576 L72.039,15.549 L71.882,15.529 L71.728,15.516 L71.579,15.511 L71.435,15.514 L71.295,15.525 L71.159,15.543 L71.027,15.568 L70.9,15.601 L70.777,15.642 L70.659,15.691 L70.545,15.747 L70.435,15.811 L70.332,15.88 L70.236,15.956 L70.147,16.036 L70.065,16.122 L69.991,16.213 L69.924,16.31 L69.865,16.411 L69.812,16.519 L69.767,16.631 L69.729,16.749 L69.699,16.872 L69.675,17.001 L69.663,17.099 L69.655,17.196 L69.652,17.292 L69.654,17.385 L69.66,17.478 L69.671,17.569 L69.686,17.658 L69.707,17.746 L69.732,17.832 L69.761,17.917 L69.796,18.001 L69.835,18.082 L69.878,18.162 L69.925,18.237 L69.976,18.309 L70.031,18.377 L70.089,18.441 L70.152,18.501 L70.218,18.558 L70.288,18.61 L70.362,18.659 L70.44,18.704 L70.522,18.745 L70.607,18.783 L70.604,18.802 L70.506,18.806 L70.41,18.816 L70.317,18.831 L70.225,18.851 L70.135,18.876 L70.048,18.907 L69.962,18.943 L69.879,18.984 L69.798,19.031 L69.719,19.083 L69.642,19.141 L69.567,19.203 L69.496,19.27 L69.43,19.341 L69.369,19.415 L69.312,19.493 L69.26,19.575 L69.213,19.661 L69.17,19.75 L69.132,19.843 L69.1,19.939 L69.071,20.04 L69.048,20.144 L69.029,20.252 L69.01,20.406 L69.001,20.555 L69.001,20.699 L69.01,20.839 L69.028,20.974 L69.056,21.105 L69.093,21.23 L69.139,21.351 L69.194,21.468 L69.259,21.579 L69.333,21.686 L69.416,21.789 L69.507,21.886 L69.606,21.977 L69.713,22.061 L69.827,22.14 L69.949,22.213 L70.078,22.279 L70.215,22.339 L70.36,22.393 L70.512,22.442 L70.671,22.484 L70.838,22.52 L71.013,22.549 L71.193,22.572 L71.366,22.587 L71.534,22.594 z M71.786,18.621 L71.69,18.613 L71.592,18.6 L71.495,18.584 L71.403,18.563 L71.316,18.539 L71.232,18.511 L71.153,18.479 L71.078,18.443 L71.008,18.404 L70.942,18.361 L70.881,18.313 L70.823,18.262 L70.771,18.208 L70.722,18.149 L70.679,18.087 L70.641,18.021 L70.607,17.952 L70.579,17.88 L70.556,17.804 L70.538,17.726 L70.525,17.643 L70.517,17.558 L70.515,17.47 L70.517,17.378 L70.524,17.283 L70.536,17.184 L70.553,17.088 L70.574,16.997 L70.598,16.91 L70.625,16.828 L70.657,16.75 L70.692,16.678 L70.731,16.61 L70.774,16.547 L70.821,16.489 L70.871,16.435 L70.926,16.387 L70.983,16.343 L71.045,16.303 L71.11,16.269 L71.178,16.239 L71.249,16.214 L71.325,16.193 L71.403,16.177 L71.485,16.166 L71.57,16.16 L71.658,16.159 L71.751,16.162 L71.846,16.17 L71.944,16.182 L72.141,16.22 L72.318,16.272 L72.476,16.337 L72.613,16.417 L72.731,16.51 L72.83,16.618 L72.908,16.739 L72.967,16.874 L73.007,17.023 L73.026,17.186 L73.026,17.363 L73.007,17.553 L72.988,17.659 L72.967,17.759 L72.942,17.853 L72.913,17.942 L72.88,18.025 L72.844,18.102 L72.804,18.174 L72.761,18.24 L72.714,18.301 L72.664,18.356 L72.609,18.405 L72.552,18.448 L72.49,18.486 L72.426,18.52 L72.358,18.549 L72.286,18.573 L72.211,18.592 L72.133,18.607 L72.051,18.618 L71.966,18.623 L71.878,18.624 z M71.34,21.935 L71.231,21.926 L71.117,21.911 L70.894,21.868 L70.694,21.809 L70.516,21.732 L70.36,21.64 L70.226,21.531 L70.116,21.406 L70.027,21.265 L69.961,21.107 L69.917,20.932 L69.896,20.742 L69.897,20.534 L69.92,20.311 L69.937,20.214 L69.959,20.121 L69.985,20.033 L70.016,19.949 L70.051,19.869 L70.091,19.793 L70.135,19.722 L70.184,19.655 L70.237,19.592 L70.295,19.533 L70.358,19.479 L70.425,19.429 L70.496,19.384 L70.57,19.344 L70.647,19.309 L70.728,19.28 L70.811,19.256 L70.898,19.237 L70.989,19.224 L71.082,19.216 L71.179,19.214 L71.278,19.217 L71.381,19.225 L71.488,19.238 L71.597,19.257 L71.701,19.279 L71.8,19.305 L71.894,19.335 L71.984,19.369 L72.068,19.407 L72.148,19.448 L72.223,19.493 L72.293,19.542 L72.358,19.595 L72.419,19.652 L72.475,19.712 L72.526,19.776 L72.571,19.843 L72.61,19.914 L72.643,19.989 L72.671,20.066 L72.693,20.148 L72.71,20.233 L72.72,20.321 L72.725,20.413 L72.723,20.508 L72.717,20.607 L72.704,20.71 L72.683,20.829 L72.659,20.942 L72.631,21.049 L72.599,21.149 L72.563,21.244 L72.524,21.332 L72.48,21.414 L72.432,21.489 L72.38,21.559 L72.325,21.622 L72.265,21.679 L72.202,21.73 L72.135,21.774 L72.063,21.814 L71.988,21.848 L71.908,21.877 L71.824,21.9 L71.736,21.918 L71.643,21.93 L71.546,21.937 L71.446,21.939 z M47.017,22.674 L47.162,22.667 L47.311,22.654 L47.464,22.634 L47.646,22.603 L47.819,22.565 L47.985,22.52 L48.142,22.467 L48.292,22.407 L48.434,22.34 L48.567,22.265 L48.693,22.183 L48.811,22.093 L48.92,21.996 L49.022,21.892 L49.116,21.781 L49.201,21.663 L49.277,21.54 L49.343,21.412 L49.399,21.28 L49.446,21.142 L49.483,21 L49.51,20.853 L49.528,20.7 L49.537,20.543 L49.535,20.381 L49.524,20.214 L49.504,20.042 L49.478,19.892 L49.444,19.748 L49.403,19.611 L49.355,19.479 L49.299,19.353 L49.236,19.233 L49.165,19.119 L49.087,19.011 L49.002,18.909 L48.908,18.813 L48.808,18.723 L48.7,18.638 L48.587,18.562 L48.469,18.494 L48.347,18.434 L48.22,18.384 L48.089,18.342 L47.954,18.309 L47.814,18.285 L47.67,18.269 L47.521,18.262 L47.368,18.264 L47.21,18.275 L47.049,18.295 L46.914,18.318 L46.783,18.346 L46.657,18.379 L46.536,18.418 L46.42,18.462 L46.308,18.512 L46.2,18.567 L46.098,18.627 L46,18.693 L45.907,18.764 L45.818,18.84 L45.734,18.922 L45.539,16.688 L48.555,16.248 L48.449,15.524 L44.657,16.077 L44.973,19.795 L45.806,19.674 L45.85,19.625 L45.893,19.577 L45.937,19.532 L45.982,19.489 L46.026,19.448 L46.071,19.409 L46.116,19.373 L46.162,19.338 L46.208,19.305 L46.254,19.274 L46.3,19.246 L46.347,19.219 L46.395,19.195 L46.443,19.171 L46.493,19.149 L46.543,19.129 L46.594,19.11 L46.646,19.092 L46.699,19.076 L46.753,19.061 L46.808,19.047 L46.863,19.035 L46.919,19.025 L46.976,19.016 L47.085,19.003 L47.191,18.996 L47.294,18.994 L47.394,18.999 L47.491,19.009 L47.584,19.025 L47.675,19.047 L47.763,19.075 L47.848,19.109 L47.93,19.149 L48.008,19.195 L48.084,19.247 L48.156,19.303 L48.223,19.363 L48.285,19.428 L48.342,19.496 L48.394,19.568 L48.441,19.645 L48.483,19.726 L48.52,19.811 L48.553,19.9 L48.58,19.993 L48.603,20.09 L48.62,20.191 L48.635,20.309 L48.643,20.423 L48.645,20.533 L48.641,20.64 L48.632,20.744 L48.616,20.844 L48.594,20.941 L48.566,21.034 L48.532,21.124 L48.492,21.211 L48.446,21.294 L48.394,21.373 L48.337,21.447 L48.275,21.517 L48.208,21.582 L48.136,21.641 L48.059,21.696 L47.978,21.745 L47.891,21.79 L47.799,21.829 L47.702,21.863 L47.601,21.893 L47.494,21.917 L47.382,21.936 L47.201,21.955 L47.03,21.959 L46.868,21.948 L46.716,21.921 L46.574,21.878 L46.441,21.82 L46.319,21.747 L46.206,21.658 L46.103,21.554 L46.009,21.434 L45.926,21.299 L45.852,21.148 L45.003,21.372 L45.049,21.495 L45.101,21.611 L45.158,21.721 L45.22,21.826 L45.287,21.924 L45.359,22.017 L45.436,22.104 L45.518,22.184 L45.606,22.259 L45.698,22.328 L45.796,22.391 L45.899,22.448 L46.006,22.498 L46.118,22.542 L46.234,22.58 L46.354,22.612 L46.479,22.637 L46.607,22.656 L46.74,22.668 L46.876,22.674 z M78.923,24.869 L79.094,24.851 L79.261,24.818 L79.424,24.77 L79.582,24.707 L79.737,24.631 L79.888,24.539 L80.035,24.433 L80.177,24.312 L80.315,24.177 L80.448,24.029 L80.574,23.867 L80.695,23.693 L80.81,23.505 L80.919,23.304 L81.022,23.09 L81.12,22.863 L81.212,22.623 L81.298,22.369 L81.378,22.102 L81.452,21.823 L81.515,21.552 L81.568,21.291 L81.61,21.039 L81.641,20.797 L81.662,20.565 L81.672,20.342 L81.672,20.129 L81.66,19.926 L81.638,19.731 L81.605,19.547 L81.562,19.372 L81.508,19.207 L81.444,19.051 L81.369,18.905 L81.285,18.768 L81.189,18.641 L81.084,18.523 L80.969,18.415 L80.843,18.317 L80.707,18.228 L80.561,18.149 L80.404,18.08 L80.238,18.02 L80.061,17.97 L79.892,17.932 L79.727,17.905 L79.567,17.887 L79.41,17.88 L79.258,17.882 L79.11,17.895 L78.966,17.918 L78.826,17.95 L78.69,17.993 L78.559,18.046 L78.431,18.109 L78.308,18.181 L78.19,18.263 L78.078,18.354 L77.973,18.452 L77.875,18.559 L77.782,18.674 L77.696,18.798 L77.617,18.93 L77.544,19.07 L77.477,19.218 L77.417,19.375 L77.363,19.54 L77.316,19.713 L77.277,19.884 L77.247,20.051 L77.226,20.214 L77.213,20.373 L77.21,20.529 L77.214,20.68 L77.228,20.828 L77.251,20.972 L77.282,21.112 L77.322,21.248 L77.371,21.38 L77.429,21.509 L77.495,21.631 L77.568,21.747 L77.647,21.855 L77.734,21.955 L77.829,22.048 L77.93,22.133 L78.038,22.211 L78.153,22.281 L78.275,22.344 L78.404,22.4 L78.54,22.447 L78.683,22.488 L78.773,22.508 L78.862,22.525 L78.951,22.538 L79.04,22.547 L79.128,22.552 L79.216,22.553 L79.304,22.551 L79.391,22.545 L79.478,22.535 L79.565,22.521 L79.651,22.503 L79.737,22.482 L79.821,22.456 L79.902,22.427 L79.98,22.395 L80.055,22.361 L80.126,22.322 L80.195,22.281 L80.26,22.236 L80.322,22.189 L80.381,22.138 L80.437,22.084 L80.49,22.027 L80.54,21.966 L80.484,22.165 L80.425,22.354 L80.363,22.535 L80.297,22.706 L80.228,22.868 L80.156,23.021 L80.081,23.165 L80.002,23.299 L79.92,23.425 L79.835,23.541 L79.747,23.649 L79.655,23.747 L79.561,23.835 L79.464,23.913 L79.366,23.98 L79.265,24.038 L79.163,24.085 L79.057,24.121 L78.95,24.148 L78.841,24.164 L78.729,24.17 L78.615,24.166 L78.498,24.151 L78.38,24.127 L78.243,24.087 L78.117,24.037 L78.003,23.979 L77.899,23.911 L77.807,23.833 L77.727,23.747 L77.657,23.651 L77.599,23.547 L77.552,23.432 L77.516,23.309 L77.491,23.176 L77.478,23.034 L76.649,22.962 L76.655,23.088 L76.666,23.209 L76.682,23.325 L76.703,23.437 L76.729,23.545 L76.76,23.648 L76.795,23.746 L76.836,23.84 L76.882,23.929 L76.933,24.013 L76.988,24.093 L77.049,24.169 L77.115,24.24 L77.187,24.308 L77.264,24.372 L77.346,24.433 L77.434,24.49 L77.527,24.545 L77.625,24.595 L77.729,24.642 L77.839,24.686 L77.953,24.727 L78.073,24.764 L78.198,24.797 L78.385,24.837 L78.568,24.862 L78.748,24.873 z M79.35,21.921 L79.29,21.917 L79.229,21.911 L79.169,21.903 L79.109,21.891 L79.049,21.878 L78.952,21.85 L78.86,21.818 L78.774,21.78 L78.692,21.737 L78.615,21.689 L78.543,21.635 L78.476,21.577 L78.414,21.513 L78.356,21.444 L78.304,21.37 L78.257,21.29 L78.214,21.205 L78.178,21.116 L78.147,21.023 L78.122,20.928 L78.104,20.829 L78.091,20.727 L78.084,20.622 L78.083,20.513 L78.087,20.402 L78.098,20.288 L78.115,20.17 L78.137,20.049 L78.165,19.925 L78.198,19.804 L78.235,19.689 L78.275,19.579 L78.319,19.474 L78.366,19.375 L78.418,19.282 L78.473,19.194 L78.532,19.111 L78.595,19.035 L78.661,18.963 L78.731,18.897 L78.805,18.837 L78.882,18.783 L78.961,18.735 L79.043,18.694 L79.126,18.661 L79.212,18.634 L79.299,18.614 L79.389,18.601 L79.48,18.595 L79.574,18.596 L79.67,18.604 L79.768,18.619 L79.868,18.64 L79.966,18.669 L80.06,18.703 L80.148,18.744 L80.231,18.791 L80.309,18.844 L80.382,18.904 L80.449,18.969 L80.512,19.041 L80.569,19.119 L80.62,19.203 L80.667,19.294 L80.709,19.391 L80.745,19.492 L80.775,19.596 L80.799,19.704 L80.817,19.815 L80.829,19.929 L80.834,20.046 L80.834,20.167 L80.827,20.291 L80.814,20.419 L80.795,20.549 L80.769,20.683 L80.738,20.82 L80.72,20.887 L80.7,20.953 L80.677,21.016 L80.653,21.077 L80.626,21.137 L80.597,21.194 L80.566,21.25 L80.533,21.304 L80.497,21.357 L80.46,21.407 L80.42,21.455 L80.378,21.502 L80.334,21.546 L80.289,21.588 L80.243,21.627 L80.196,21.664 L80.146,21.698 L80.096,21.73 L80.044,21.76 L79.991,21.787 L79.937,21.812 L79.881,21.835 L79.824,21.855 L79.766,21.872 L79.707,21.887 L79.648,21.899 L79.588,21.909 L79.529,21.915 L79.469,21.92 L79.409,21.921 z M41.322,24.494 L40.96,23.042 L41.878,22.813 L41.714,22.153 L40.795,22.382 L39.698,17.981 L38.821,18.2 L36.926,23.359 L37.087,24.008 L40.171,23.239 L40.533,24.691 z M37.744,23.044 L37.908,22.637 L38.971,19.752 L38.978,19.734 L38.985,19.714 L38.992,19.691 L39,19.667 L39.008,19.641 L39.017,19.613 L39.026,19.583 L39.035,19.55 L39.045,19.516 L39.065,19.442 L39.076,19.401 L39.097,19.324 L39.113,19.259 L39.12,19.231 L39.131,19.185 L39.136,19.166 L39.139,19.15 L39.142,19.138 L39.143,19.128 L39.144,19.122 L40.006,22.579 L37.693,23.156 z M84.898,26.667 L83.967,26.352 L85.884,20.687 L85.433,20.534 L84.147,21.347 L83.887,22.118 L85.127,21.302 L83.474,26.186 L82.498,25.855 L82.263,26.548 L84.663,27.36 z M32.751,28.293 L32.894,28.281 L33.04,28.261 L33.19,28.233 L33.343,28.198 L33.499,28.154 L33.659,28.102 L33.828,28.041 L33.987,27.974 L34.138,27.903 L34.28,27.827 L34.412,27.747 L34.536,27.662 L34.65,27.572 L34.756,27.478 L34.853,27.379 L34.94,27.276 L35.019,27.168 L35.088,27.056 L35.148,26.939 L35.198,26.819 L35.239,26.697 L35.269,26.571 L35.29,26.443 L35.302,26.311 L35.303,26.177 L35.295,26.04 L35.277,25.9 L35.25,25.756 L35.213,25.61 L35.165,25.461 L35.127,25.359 L35.084,25.262 L35.037,25.169 L34.985,25.082 L34.929,25 L34.868,24.922 L34.803,24.849 L34.733,24.781 L34.658,24.718 L34.58,24.66 L34.496,24.607 L34.408,24.559 L34.317,24.515 L34.223,24.478 L34.126,24.447 L34.026,24.422 L33.924,24.404 L33.818,24.392 L33.71,24.385 L33.6,24.385 L33.486,24.392 L33.37,24.404 L33.25,24.423 L33.129,24.448 L33.122,24.429 L33.22,24.368 L33.312,24.305 L33.399,24.239 L33.481,24.172 L33.557,24.103 L33.627,24.032 L33.692,23.959 L33.752,23.884 L33.805,23.807 L33.854,23.729 L33.896,23.647 L33.934,23.565 L33.965,23.48 L33.991,23.393 L34.011,23.305 L34.025,23.215 L34.033,23.124 L34.036,23.031 L34.032,22.936 L34.023,22.84 L34.008,22.742 L33.987,22.643 L33.96,22.542 L33.927,22.44 L33.878,22.309 L33.823,22.186 L33.763,22.07 L33.697,21.962 L33.625,21.861 L33.547,21.768 L33.464,21.682 L33.376,21.604 L33.281,21.533 L33.181,21.47 L33.075,21.414 L32.964,21.366 L32.847,21.325 L32.727,21.292 L32.604,21.268 L32.476,21.252 L32.344,21.245 L32.209,21.245 L32.07,21.255 L31.927,21.272 L31.78,21.298 L31.63,21.332 L31.476,21.375 L31.318,21.426 L31.174,21.478 L31.038,21.536 L30.908,21.597 L30.784,21.664 L30.667,21.735 L30.557,21.811 L30.453,21.891 L30.356,21.975 L30.265,22.065 L30.181,22.158 L30.103,22.257 L30.032,22.36 L29.969,22.466 L29.913,22.575 L29.866,22.686 L29.826,22.8 L29.795,22.916 L29.772,23.035 L29.757,23.157 L29.75,23.281 L29.751,23.407 L29.76,23.536 L29.778,23.668 L29.804,23.803 L30.646,23.585 L30.629,23.499 L30.616,23.415 L30.609,23.333 L30.606,23.253 L30.609,23.174 L30.616,23.097 L30.628,23.022 L30.646,22.949 L30.668,22.878 L30.695,22.808 L30.727,22.74 L30.764,22.674 L30.806,22.611 L30.852,22.55 L30.902,22.492 L30.956,22.437 L31.014,22.385 L31.077,22.335 L31.144,22.289 L31.215,22.245 L31.29,22.204 L31.369,22.166 L31.453,22.131 L31.54,22.098 L31.638,22.067 L31.732,22.042 L31.825,22.022 L31.914,22.007 L32.001,21.999 L32.086,21.995 L32.167,21.998 L32.247,22.006 L32.323,22.02 L32.397,22.039 L32.468,22.063 L32.537,22.094 L32.603,22.129 L32.665,22.169 L32.725,22.213 L32.781,22.261 L32.835,22.315 L32.885,22.372 L32.932,22.435 L32.976,22.501 L33.017,22.573 L33.055,22.648 L33.089,22.729 L33.121,22.814 L33.147,22.9 L33.168,22.986 L33.183,23.07 L33.191,23.153 L33.193,23.234 L33.189,23.314 L33.179,23.392 L33.163,23.469 L33.14,23.545 L33.111,23.619 L33.076,23.692 L33.034,23.764 L32.987,23.833 L32.935,23.899 L32.876,23.964 L32.812,24.025 L32.743,24.083 L32.668,24.139 L32.587,24.193 L32.501,24.243 L32.409,24.291 L32.311,24.336 L32.208,24.379 L32.099,24.418 L31.657,24.571 L31.9,25.275 L32.361,25.117 L32.485,25.076 L32.606,25.042 L32.723,25.013 L32.837,24.991 L32.947,24.974 L33.053,24.963 L33.157,24.958 L33.256,24.959 L33.353,24.966 L33.445,24.979 L33.534,24.997 L33.62,25.022 L33.702,25.052 L33.78,25.087 L33.853,25.128 L33.922,25.173 L33.987,25.224 L34.046,25.281 L34.102,25.342 L34.153,25.409 L34.2,25.481 L34.242,25.558 L34.28,25.64 L34.313,25.728 L34.345,25.83 L34.371,25.929 L34.391,26.026 L34.404,26.12 L34.411,26.212 L34.412,26.301 L34.407,26.388 L34.395,26.472 L34.377,26.554 L34.352,26.633 L34.321,26.71 L34.284,26.784 L34.241,26.855 L34.193,26.923 L34.139,26.987 L34.081,27.049 L34.017,27.107 L33.948,27.163 L33.874,27.215 L33.795,27.264 L33.711,27.31 L33.621,27.353 L33.527,27.393 L33.427,27.43 L33.227,27.49 L33.037,27.529 L32.856,27.547 L32.685,27.544 L32.523,27.521 L32.37,27.477 L32.226,27.412 L32.092,27.326 L31.967,27.219 L31.851,27.092 L31.745,26.943 L31.648,26.774 L30.833,27.142 L30.903,27.274 L30.976,27.398 L31.055,27.514 L31.137,27.622 L31.224,27.723 L31.316,27.815 L31.413,27.899 L31.513,27.975 L31.619,28.043 L31.728,28.103 L31.843,28.154 L31.962,28.198 L32.085,28.234 L32.211,28.261 L32.341,28.281 L32.475,28.293 L32.611,28.297 z M86.798,28.168 L86.906,28.145 L87.013,28.108 L87.121,28.058 L87.227,27.994 L87.334,27.917 L87.44,27.827 L87.545,27.723 L87.65,27.605 L87.755,27.475 L87.858,27.333 L87.96,27.177 L88.061,27.01 L88.161,26.83 L88.26,26.639 L88.358,26.434 L88.455,26.218 L88.551,25.989 L88.646,25.748 L88.739,25.494 L88.832,25.228 L88.922,24.957 L89.003,24.695 L89.076,24.443 L89.14,24.2 L89.196,23.967 L89.245,23.745 L89.284,23.532 L89.315,23.329 L89.338,23.136 L89.353,22.952 L89.36,22.778 L89.358,22.614 L89.347,22.46 L89.328,22.316 L89.3,22.182 L89.263,22.058 L89.217,21.944 L89.162,21.841 L89.098,21.747 L89.025,21.663 L88.944,21.59 L88.853,21.527 L88.754,21.473 L88.645,21.43 L88.53,21.398 L88.416,21.378 L88.303,21.373 L88.191,21.38 L88.081,21.401 L87.972,21.436 L87.864,21.483 L87.758,21.544 L87.652,21.619 L87.548,21.707 L87.445,21.808 L87.344,21.923 L87.243,22.051 L87.143,22.192 L87.043,22.346 L86.945,22.513 L86.846,22.694 L86.748,22.887 L86.651,23.094 L86.554,23.314 L86.457,23.548 L86.361,23.794 L86.266,24.054 L86.171,24.327 L86.083,24.596 L86.002,24.856 L85.931,25.106 L85.867,25.346 L85.812,25.578 L85.765,25.8 L85.726,26.013 L85.696,26.216 L85.674,26.41 L85.66,26.595 L85.654,26.77 L85.657,26.937 L85.669,27.092 L85.689,27.238 L85.717,27.373 L85.755,27.498 L85.8,27.613 L85.855,27.717 L85.918,27.811 L85.989,27.895 L86.069,27.968 L86.158,28.031 L86.255,28.084 L86.361,28.126 L86.471,28.157 L86.58,28.174 L86.689,28.178 z M86.663,27.481 L86.591,27.462 L86.522,27.434 L86.459,27.397 L86.402,27.353 L86.352,27.301 L86.307,27.242 L86.269,27.174 L86.238,27.098 L86.213,27.015 L86.194,26.924 L86.181,26.825 L86.175,26.718 L86.174,26.603 L86.181,26.479 L86.193,26.346 L86.212,26.203 L86.238,26.051 L86.269,25.889 L86.307,25.718 L86.351,25.538 L86.401,25.348 L86.458,25.149 L86.521,24.94 L86.59,24.722 L86.665,24.495 L86.746,24.261 L86.825,24.04 L86.904,23.831 L86.981,23.634 L87.057,23.45 L87.132,23.278 L87.206,23.117 L87.279,22.969 L87.351,22.833 L87.422,22.71 L87.491,22.598 L87.56,22.499 L87.629,22.41 L87.698,22.332 L87.768,22.263 L87.838,22.204 L87.909,22.155 L87.981,22.116 L88.053,22.087 L88.125,22.068 L88.199,22.059 L88.273,22.059 L88.347,22.07 L88.422,22.091 L88.492,22.119 L88.555,22.156 L88.613,22.2 L88.663,22.251 L88.708,22.311 L88.746,22.378 L88.777,22.452 L88.802,22.535 L88.821,22.625 L88.833,22.722 L88.839,22.828 L88.838,22.941 L88.831,23.063 L88.817,23.194 L88.798,23.336 L88.771,23.488 L88.739,23.649 L88.7,23.821 L88.655,24.003 L88.604,24.194 L88.546,24.396 L88.482,24.607 L88.411,24.828 L88.334,25.06 L88.258,25.282 L88.181,25.494 L88.105,25.695 L88.03,25.885 L87.955,26.064 L87.881,26.233 L87.807,26.391 L87.734,26.538 L87.662,26.674 L87.589,26.8 L87.518,26.914 L87.447,27.019 L87.376,27.112 L87.305,27.195 L87.234,27.268 L87.163,27.33 L87.092,27.382 L87.021,27.424 L86.949,27.456 L86.878,27.478 L86.806,27.489 L86.735,27.49 z M92.283,30.505 L91.39,30.094 L93.889,24.66 L93.456,24.461 L92.093,25.135 L91.753,25.874 L93.072,25.192 L90.917,29.877 L89.98,29.446 L89.675,30.11 L91.977,31.169 z M28.859,30.974 L28.554,30.31 L25.36,31.778 L25.36,31.717 L25.361,31.653 L25.365,31.589 L25.371,31.523 L25.379,31.456 L25.389,31.387 L25.401,31.317 L25.415,31.246 L25.431,31.173 L25.45,31.099 L25.47,31.024 L25.493,30.947 L25.518,30.868 L25.545,30.786 L25.575,30.702 L25.607,30.615 L25.641,30.526 L25.678,30.435 L25.717,30.341 L25.758,30.245 L25.802,30.147 L25.847,30.046 L25.896,29.942 L25.946,29.837 L26.038,29.647 L26.123,29.467 L26.203,29.296 L26.278,29.134 L26.347,28.981 L26.41,28.838 L26.467,28.704 L26.519,28.579 L26.565,28.464 L26.605,28.357 L26.64,28.26 L26.669,28.172 L26.694,28.089 L26.717,28.006 L26.738,27.925 L26.757,27.844 L26.773,27.765 L26.787,27.687 L26.799,27.61 L26.809,27.533 L26.817,27.458 L26.822,27.384 L26.825,27.311 L26.826,27.238 L26.825,27.167 L26.822,27.097 L26.816,27.027 L26.808,26.959 L26.798,26.891 L26.786,26.825 L26.771,26.759 L26.754,26.695 L26.734,26.631 L26.712,26.569 L26.688,26.507 L26.662,26.447 L26.597,26.316 L26.528,26.193 L26.455,26.079 L26.377,25.972 L26.294,25.875 L26.207,25.785 L26.115,25.704 L26.019,25.631 L25.918,25.567 L25.813,25.511 L25.703,25.463 L25.589,25.424 L25.471,25.393 L25.349,25.371 L25.225,25.358 L25.097,25.354 L24.966,25.358 L24.832,25.371 L24.695,25.394 L24.555,25.425 L24.411,25.465 L24.265,25.514 L24.115,25.572 L23.962,25.639 L23.825,25.705 L23.695,25.776 L23.573,25.851 L23.457,25.93 L23.348,26.012 L23.246,26.1 L23.151,26.191 L23.063,26.286 L22.982,26.386 L22.909,26.489 L22.842,26.597 L22.782,26.709 L22.73,26.822 L22.686,26.938 L22.65,27.054 L22.623,27.172 L22.603,27.291 L22.592,27.411 L22.589,27.533 L22.594,27.656 L22.607,27.781 L22.628,27.906 L22.658,28.034 L22.695,28.162 L23.531,27.868 L23.505,27.783 L23.485,27.699 L23.469,27.617 L23.459,27.535 L23.454,27.456 L23.454,27.377 L23.459,27.3 L23.469,27.224 L23.484,27.15 L23.504,27.077 L23.53,27.005 L23.56,26.934 L23.595,26.865 L23.634,26.799 L23.678,26.735 L23.726,26.674 L23.778,26.616 L23.834,26.56 L23.894,26.507 L23.959,26.457 L24.027,26.409 L24.1,26.364 L24.177,26.322 L24.258,26.282 L24.346,26.245 L24.432,26.212 L24.516,26.185 L24.599,26.164 L24.68,26.148 L24.76,26.137 L24.839,26.132 L24.916,26.132 L24.992,26.138 L25.066,26.149 L25.139,26.166 L25.21,26.188 L25.28,26.214 L25.347,26.246 L25.411,26.283 L25.472,26.325 L25.531,26.372 L25.588,26.423 L25.641,26.481 L25.692,26.543 L25.741,26.61 L25.786,26.682 L25.83,26.76 L25.87,26.842 L25.897,26.905 L25.922,26.967 L25.944,27.03 L25.962,27.093 L25.978,27.156 L25.991,27.219 L26.001,27.281 L26.008,27.344 L26.012,27.407 L26.014,27.47 L26.012,27.533 L26.008,27.596 L26.001,27.659 L25.994,27.723 L25.984,27.786 L25.973,27.85 L25.96,27.914 L25.945,27.979 L25.929,28.044 L25.911,28.109 L25.891,28.175 L25.87,28.241 L25.847,28.307 L25.822,28.374 L25.796,28.441 L25.769,28.508 L25.741,28.575 L25.713,28.644 L25.683,28.712 L25.652,28.781 L25.62,28.85 L25.587,28.92 L25.553,28.991 L25.519,29.062 L25.483,29.133 L25.41,29.277 L25.373,29.35 L25.337,29.423 L25.301,29.497 L25.265,29.572 L25.23,29.648 L25.194,29.724 L25.159,29.801 L25.124,29.878 L25.089,29.957 L25.055,30.036 L25.02,30.116 L24.987,30.196 L24.954,30.277 L24.922,30.359 L24.891,30.442 L24.861,30.525 L24.832,30.61 L24.804,30.695 L24.777,30.781 L24.751,30.868 L24.725,30.956 L24.701,31.045 L24.677,31.135 L24.655,31.225 L24.635,31.316 L24.617,31.409 L24.602,31.502 L24.588,31.597 L24.576,31.692 L24.567,31.789 L24.56,31.886 L24.555,31.985 L24.552,32.085 L24.551,32.186 L24.552,32.287 L24.806,32.838 z M94.807,31.666 L93.914,31.255 L96.414,25.822 L95.981,25.622 L94.617,26.296 L94.277,27.035 L95.596,26.353 L93.442,31.038 L92.505,30.607 L92.199,31.272 L94.502,32.331 z M24.803,41.903 L25.03,42.296 L29.282,40.035 L33.682,38.076 L38.207,36.429 L42.836,35.101 L47.547,34.1 L52.316,33.43 L57.12,33.094 L61.935,33.094 L66.739,33.43 L71.508,34.1 L76.219,35.101 L80.848,36.429 L85.374,38.076 L89.773,40.035 L94.025,42.296 L94.252,41.903 L95.182,42.439 L98.012,37.526 L96.047,36.394 L93.904,40.114 L90.593,38.353 L89.934,38.06 L91.71,34.163 L89.647,33.222 L87.863,37.137 L86.075,36.341 L83.712,35.482 L85.117,31.413 L82.974,30.673 L81.581,34.706 L81.426,34.65 L77.287,33.462 L78.293,29.302 L76.089,28.769 L75.078,32.947 L71.833,32.258 L70.691,32.097 L71.299,27.849 L69.054,27.527 L68.445,31.782 L66.935,31.569 L63.996,31.364 L64.199,27.066 L61.934,26.959 L61.732,31.224 L57.261,31.224 L57.056,26.961 L54.791,27.07 L54.998,31.368 L52.12,31.569 L50.549,31.79 L49.936,27.535 L47.691,27.859 L48.303,32.106 L47.222,32.258 L43.917,32.96 L42.902,28.783 L40.699,29.318 L41.709,33.48 L37.629,34.65 L37.416,34.727 L36.019,30.694 L33.876,31.436 L35.285,35.503 L32.981,36.341 L31.136,37.163 L29.348,33.249 L27.286,34.191 L29.064,38.085 L28.462,38.353 L25.096,40.143 L22.95,36.426 L20.987,37.56 L23.821,42.47 z M96.944,35.093 L96.087,34.612 L99.014,29.396 L98.598,29.163 L97.185,29.725 L96.787,30.434 L98.156,29.86 L95.633,34.357 L94.734,33.853 L94.376,34.49 L96.586,35.731 z M23.146,35.331 L22.781,34.698 L21.362,35.517 L18.371,30.337 L17.684,30.734 L16.893,32.556 L17.3,33.26 L18.033,31.485 L20.611,35.951 L19.123,36.81 L19.488,37.443 z M99.733,36.658 L97.894,35.626 L97.935,35.584 L97.977,35.543 L98.021,35.502 L98.067,35.462 L98.113,35.422 L98.161,35.382 L98.211,35.343 L98.262,35.304 L98.315,35.266 L98.369,35.228 L98.425,35.19 L98.482,35.153 L98.541,35.116 L98.603,35.078 L98.666,35.041 L98.732,35.003 L98.801,34.965 L98.871,34.927 L98.944,34.889 L99.019,34.851 L99.096,34.812 L99.175,34.773 L99.257,34.735 L99.341,34.696 L99.491,34.626 L99.634,34.56 L99.769,34.496 L99.897,34.434 L100.017,34.376 L100.129,34.32 L100.233,34.266 L100.33,34.215 L100.419,34.167 L100.501,34.121 L100.575,34.078 L100.641,34.037 L100.703,33.997 L100.764,33.957 L100.823,33.915 L100.882,33.873 L100.939,33.831 L100.995,33.787 L101.049,33.743 L101.102,33.698 L101.154,33.652 L101.205,33.606 L101.254,33.559 L101.302,33.511 L101.35,33.463 L101.395,33.414 L101.44,33.364 L101.483,33.313 L101.525,33.261 L101.566,33.209 L101.605,33.156 L101.643,33.102 L101.68,33.047 L101.716,32.991 L101.75,32.935 L101.783,32.877 L101.852,32.749 L101.915,32.623 L101.971,32.5 L102.02,32.38 L102.063,32.262 L102.098,32.148 L102.127,32.035 L102.15,31.926 L102.165,31.819 L102.174,31.715 L102.176,31.614 L102.171,31.515 L102.159,31.42 L102.141,31.329 L102.116,31.241 L102.084,31.158 L102.046,31.078 L102.001,31.003 L101.949,30.931 L101.89,30.864 L101.825,30.8 L101.752,30.74 L101.674,30.684 L101.588,30.632 L101.507,30.591 L101.425,30.556 L101.342,30.529 L101.258,30.508 L101.173,30.495 L101.088,30.489 L101.002,30.49 L100.915,30.499 L100.827,30.514 L100.738,30.537 L100.649,30.567 L100.558,30.604 L100.469,30.647 L100.381,30.697 L100.294,30.752 L100.208,30.814 L100.124,30.881 L100.041,30.955 L99.959,31.034 L99.879,31.12 L99.8,31.211 L99.722,31.309 L99.646,31.413 L99.571,31.522 L99.992,31.853 L100.042,31.78 L100.092,31.711 L100.142,31.646 L100.194,31.585 L100.245,31.528 L100.297,31.476 L100.35,31.427 L100.403,31.383 L100.456,31.342 L100.51,31.306 L100.565,31.274 L100.619,31.246 L100.675,31.222 L100.73,31.203 L100.784,31.187 L100.837,31.177 L100.89,31.17 L100.942,31.169 L100.993,31.171 L101.044,31.178 L101.094,31.19 L101.144,31.205 L101.193,31.226 L101.241,31.25 L101.29,31.28 L101.334,31.313 L101.375,31.348 L101.412,31.386 L101.445,31.427 L101.473,31.47 L101.498,31.516 L101.519,31.565 L101.535,31.617 L101.548,31.671 L101.557,31.728 L101.562,31.788 L101.563,31.85 L101.56,31.913 L101.553,31.978 L101.542,32.045 L101.527,32.114 L101.508,32.184 L101.484,32.256 L101.457,32.33 L101.425,32.405 L101.39,32.483 L101.35,32.562 L101.306,32.642 L101.272,32.702 L101.237,32.759 L101.201,32.815 L101.165,32.869 L101.128,32.921 L101.089,32.971 L101.05,33.019 L101.011,33.066 L100.97,33.111 L100.929,33.154 L100.887,33.195 L100.844,33.234 L100.8,33.273 L100.756,33.31 L100.711,33.347 L100.666,33.382 L100.619,33.417 L100.573,33.451 L100.525,33.485 L100.477,33.517 L100.428,33.549 L100.379,33.579 L100.328,33.609 L100.277,33.638 L100.226,33.666 L100.174,33.694 L100.122,33.722 L100.069,33.749 L100.015,33.776 L99.961,33.803 L99.907,33.829 L99.851,33.856 L99.795,33.882 L99.739,33.907 L99.682,33.933 L99.567,33.983 L99.509,34.008 L99.45,34.034 L99.391,34.061 L99.332,34.089 L99.272,34.117 L99.212,34.145 L99.151,34.175 L99.09,34.205 L99.029,34.235 L98.967,34.266 L98.905,34.298 L98.843,34.331 L98.78,34.364 L98.717,34.399 L98.654,34.435 L98.59,34.472 L98.526,34.51 L98.462,34.549 L98.398,34.59 L98.333,34.632 L98.268,34.675 L98.202,34.719 L98.136,34.764 L98.07,34.81 L98.004,34.859 L97.938,34.91 L97.872,34.962 L97.806,35.017 L97.739,35.073 L97.673,35.132 L97.606,35.193 L97.539,35.256 L97.472,35.321 L97.405,35.388 L97.338,35.457 L97.041,35.986 L99.376,37.296 z M55.908,44.768 L63.264,44.768 L63.264,51.024 L65.109,51.024 L65.109,37.417 L63.264,37.417 L63.264,43.223 L55.908,43.223 L55.908,37.417 L54.062,37.417 L54.062,51.024 L55.908,51.024 z M17.452,72.26 L17.746,72.219 L18.037,72.157 L18.322,72.075 L18.601,71.974 L18.872,71.853 L19.134,71.714 L19.386,71.557 L19.626,71.382 L19.853,71.191 L20.066,70.985 L20.265,70.765 L20.448,70.531 L20.614,70.285 L20.762,70.028 L20.892,69.761 L21.003,69.486 L21.095,69.203 L21.167,68.916 L21.218,68.623 L21.25,68.328 L21.26,68.032 L21.25,67.735 L21.218,67.44 L21.167,67.147 L21.095,66.859 L21.003,66.577 L20.892,66.302 L20.762,66.035 L20.614,65.778 L20.448,65.532 L20.265,65.298 L20.066,65.078 L19.853,64.872 L19.626,64.681 L19.386,64.506 L19.134,64.349 L18.872,64.21 L18.601,64.089 L18.322,63.988 L18.037,63.906 L17.746,63.844 L17.452,63.803 L17.156,63.782 L16.86,63.782 L16.563,63.803 L16.269,63.844 L15.979,63.906 L15.694,63.988 L15.415,64.089 L15.144,64.21 L14.882,64.349 L14.63,64.506 L14.39,64.681 L14.163,64.872 L13.949,65.078 L13.751,65.298 L13.568,65.532 L13.402,65.778 L13.254,66.035 L13.124,66.302 L13.012,66.577 L12.921,66.859 L12.849,67.147 L12.797,67.44 L12.766,67.735 L12.756,68.032 L12.766,68.328 L12.797,68.623 L12.849,68.916 L12.921,69.203 L13.012,69.486 L13.124,69.761 L13.254,70.028 L13.402,70.285 L13.568,70.531 L13.751,70.765 L13.949,70.985 L14.163,71.191 L14.39,71.382 L14.63,71.557 L14.882,71.714 L15.144,71.853 L15.415,71.974 L15.694,72.075 L15.979,72.157 L16.269,72.219 L16.563,72.26 L16.86,72.281 L17.156,72.281 z M102.492,72.26 L102.786,72.219 L103.076,72.157 L103.361,72.075 L103.64,71.974 L103.911,71.853 L104.173,71.714 L104.425,71.557 L104.665,71.382 L104.892,71.191 L105.106,70.985 L105.304,70.765 L105.487,70.531 L105.653,70.285 L105.802,70.028 L105.932,69.761 L106.043,69.486 L106.134,69.203 L106.206,68.916 L106.258,68.623 L106.289,68.328 L106.299,68.032 L106.289,67.735 L106.258,67.44 L106.206,67.147 L106.134,66.859 L106.043,66.577 L105.932,66.302 L105.802,66.035 L105.653,65.778 L105.487,65.532 L105.304,65.298 L105.106,65.078 L104.892,64.872 L104.665,64.681 L104.425,64.506 L104.173,64.349 L103.911,64.21 L103.64,64.089 L103.361,63.988 L103.076,63.906 L102.786,63.844 L102.492,63.803 L102.196,63.782 L101.899,63.782 L101.603,63.803 L101.309,63.844 L101.019,63.906 L100.733,63.988 L100.454,64.089 L100.183,64.21 L99.921,64.349 L99.67,64.506 L99.429,64.681 L99.202,64.872 L98.989,65.078 L98.79,65.298 L98.607,65.532 L98.441,65.778 L98.293,66.035 L98.163,66.302 L98.052,66.577 L97.96,66.859 L97.888,67.147 L97.837,67.44 L97.806,67.735 L97.795,68.032 L97.806,68.328 L97.837,68.623 L97.888,68.916 L97.96,69.203 L98.052,69.486 L98.163,69.761 L98.293,70.028 L98.441,70.285 L98.607,70.531 L98.79,70.765 L98.989,70.985 L99.202,71.191 L99.429,71.382 L99.67,71.557 L99.921,71.714 L100.183,71.853 L100.454,71.974 L100.733,72.075 L101.019,72.157 L101.309,72.219 L101.603,72.26 L101.899,72.281 L102.196,72.281 z" fill="#000000"/>
  </g>
</svg>
